<?xml version="1.0" encoding="UTF-8"?>
<svg version="1.1" xmlns="http://www.w3.org/2000/svg" width="447" height="447">
<path d="M0 0 C1.57373278 0.8205546 3.13201455 1.67124431 4.67578125 2.546875 C5.57337158 3.05460449 6.47096191 3.56233398 7.39575195 4.08544922 C8.35827881 4.63475098 9.32080566 5.18405273 10.3125 5.75 C11.83460083 6.61455811 11.83460083 6.61455811 13.38745117 7.49658203 C22.5780878 12.73040401 31.71188214 18.06024042 40.83984375 23.40234375 C50.43205507 29.01247788 60.06670925 34.54920903 69.69580078 40.09570312 C73.02614252 42.01506662 76.35509148 43.93682353 79.68359375 45.859375 C90.61358123 52.17189401 101.55300302 58.46679648 112.51635742 64.72119141 C120.57788898 69.32312147 128.61101806 73.97330094 136.63964844 78.63232422 C139.05218958 80.03024059 141.46716152 81.42387148 143.8828125 82.81640625 C145.10556885 83.52204712 145.10556885 83.52204712 146.35302734 84.24194336 C147.86581323 85.11482297 149.37909343 85.98684697 150.89306641 86.85766602 C152.33293417 87.6892378 153.76099986 88.54157607 155.17660427 89.41381168 C157.36330162 90.64230181 159.40234025 91.60153252 161.70508671 92.55107021 C171.68757731 97.02195878 171.68757731 97.02195878 173.85964656 101.95063901 C175.23999713 107.8570716 174.87854702 113.91210774 174.70288086 119.93188477 C174.69864607 121.96273991 174.70103199 123.99361801 174.70951843 126.02445984 C174.71381339 131.52164573 174.62580093 137.01389742 174.52090907 142.50993848 C174.42697408 148.25921247 174.41831572 154.00860671 174.40052795 159.75852966 C174.35395212 170.63910345 174.23093042 181.51740964 174.08028561 192.39698595 C173.9124738 204.78599686 173.83011443 217.17511758 173.75485408 229.56498253 C173.59817152 255.04457768 173.33442995 280.52216166 173 306 C172.25601456 306.40452896 171.51202911 306.80905792 170.74549866 307.22584534 C169.76350998 307.76047897 168.7815213 308.29511261 167.76977539 308.84594727 C166.31348473 309.63836571 166.31348473 309.63836571 164.82777405 310.4467926 C160.99591611 312.55151172 157.21323329 314.7341724 153.4375 316.9375 C151.78138459 317.89997121 150.12512655 318.86219702 148.46875 319.82421875 C147.58960938 320.3351709 146.71046875 320.84612305 145.8046875 321.37255859 C140.68798495 324.34156444 135.5622945 327.29499124 130.4375 330.25 C129.34058838 330.88276855 128.24367676 331.51553711 127.11352539 332.16748047 C121.54406822 335.38020854 115.97375495 338.591443 110.40234375 341.80078125 C99.91951095 347.84107233 89.44611866 353.89639856 79 360 C65.23206784 368.04451617 51.41484404 376.00298609 37.59619141 383.95996094 C35.32508346 385.26783381 33.0542478 386.57617961 30.78369141 387.88500977 C28.57753408 389.15581176 26.37020236 390.42457746 24.16162109 391.69116211 C19.33421486 394.46571662 14.53256798 397.26405674 9.80078125 400.19921875 C9.02226807 400.67705811 8.24375488 401.15489746 7.44165039 401.6472168 C6.03464232 402.51568419 4.63580191 403.39760732 3.24780273 404.29614258 C0.49828754 405.98589985 -1.56679808 406.98497913 -4.81640625 407.09765625 C-9.60921211 405.44516736 -13.81810281 402.9867508 -18.1875 400.4375 C-19.1892627 399.86249756 -20.19102539 399.28749512 -21.22314453 398.69506836 C-30.13454941 393.55883369 -38.96664513 388.28739347 -47.80078125 383.01977539 C-56.38224797 377.91719912 -65.05605346 373.00338403 -73.78320312 368.15527344 C-84.02759061 362.45492466 -94.14136649 356.53968505 -104.25292969 350.60791016 C-108.3265879 348.223524 -112.41260039 345.86072803 -116.5 343.5 C-121.57551417 340.567902 -126.6447981 337.62573486 -131.703125 334.6640625 C-133.71869484 333.48428076 -135.7343207 332.30459471 -137.75 331.125 C-139.2515564 330.24618164 -139.2515564 330.24618164 -140.78344727 329.34960938 C-148.88754895 324.6196748 -157.04710048 319.99269144 -165.25097656 315.43798828 C-166.13624023 314.94282715 -167.02150391 314.44766602 -167.93359375 313.9375 C-168.69728271 313.51339844 -169.46097168 313.08929688 -170.24780273 312.65234375 C-171.61014038 311.83443359 -171.61014038 311.83443359 -173 311 C-173.72210915 310.73727295 -174.44421829 310.4745459 -175.18820953 310.20385742 C-178.21610779 308.81093572 -179.88300895 307.60276548 -182 305 C-183.49806184 298.61921721 -183.38735406 292.2508792 -183.40258789 285.72265625 C-183.43935262 283.7247402 -183.47971157 281.72688754 -183.52339172 279.72911072 C-183.62851492 274.30507702 -183.67431328 268.88213815 -183.70290303 263.45721436 C-183.72264639 260.06419393 -183.75368701 256.6714624 -183.78841972 253.27856445 C-183.90763961 241.42925658 -183.9736873 229.5808227 -183.99731445 217.73095703 C-184.02090165 206.70502017 -184.16843686 195.68536027 -184.37251097 184.66142559 C-184.54182028 175.18241477 -184.61806389 165.7054827 -184.62415689 156.22497272 C-184.62966668 150.56791507 -184.6731008 144.91746933 -184.81260872 139.26199341 C-185.60723719 105.02377068 -185.60723719 105.02377068 -179.70624924 96.80551147 C-174.19364305 91.86906473 -168.15250561 89.30318538 -161.15957451 87.11056519 C-155.78373242 85.22099966 -151.05751965 82.22992017 -146.1875 79.3125 C-144.28547173 78.23441595 -142.38088426 77.16082197 -140.47265625 76.09375 C-129.45034407 69.87613483 -118.52277416 63.49533847 -107.625 57.0625 C-96.9157097 50.74273693 -86.09933943 44.61066292 -75.29296875 38.45898438 C-65.76725051 33.03442558 -56.25804993 27.58855397 -46.82128906 22.01049805 C-40.071863 18.02745067 -33.28760288 14.10499018 -26.5 10.1875 C-25.40147705 9.55287842 -24.3029541 8.91825684 -23.17114258 8.2644043 C-21.07987337 7.05862027 -18.98519699 5.858721 -16.88671875 4.66552734 C-15.03737514 3.59852615 -13.20446477 2.50219413 -11.39453125 1.36962891 C-10.22470703 0.65492432 -10.22470703 0.65492432 -9.03125 -0.07421875 C-8.36673828 -0.49662842 -7.70222656 -0.91903809 -7.01757812 -1.35424805 C-4.08895541 -2.29159159 -2.69701227 -1.35848547 0 0 Z " fill="#3A3A3A" transform="translate(228,21)"/>
<path d="M0 0 C0 61.71 0 123.42 0 187 C-7.59 191.29 -15.18 195.58 -23 200 C-32.1509583 205.27048864 -41.28128153 210.56957613 -50.375 215.9375 C-61.0842903 222.25726307 -71.90066057 228.38933708 -82.70703125 234.54101562 C-92.35763609 240.03669291 -101.98929186 245.55697022 -111.54785156 251.21142578 C-118.04884057 255.04875145 -124.60578708 258.78562966 -131.16796875 262.51708984 C-137.6850931 266.22929971 -144.1573047 270.01205681 -150.58398438 273.87890625 C-154.03013038 275.93207649 -157.24632278 277.49852911 -161 279 C-161 243.69 -161 208.38 -161 172 C-165.29 172.99 -169.58 173.98 -174 175 C-177.88916615 175.26677535 -181.56364081 175.43286372 -185.4375 175.375 C-186.43249512 175.36557373 -187.42749023 175.35614746 -188.45263672 175.34643555 C-209.558311 174.91595251 -229.10119841 166.78705237 -245 153 C-244.3632712 149.38856202 -242.83794232 147.0039103 -240.76171875 144.0078125 C-240.10623047 143.05519531 -239.45074219 142.10257813 -238.77539062 141.12109375 C-238.08638672 140.13238281 -237.39738281 139.14367187 -236.6875 138.125 C-235.33707275 136.16938603 -233.98680779 134.21365997 -232.63671875 132.2578125 C-232.00427246 131.34547852 -231.37182617 130.43314453 -230.72021484 129.49316406 C-228.78098319 126.68257172 -226.879551 123.85073289 -225 121 C-221.91341946 122.4043566 -219.21728042 124.19761116 -216.43334961 126.12329102 C-205.21897242 133.76211514 -192.89657435 139.065707 -179 137 C-174.56990454 135.58291978 -171.63830123 133.95745185 -169 130 C-168.21391234 126.5136112 -168.13493226 123.476593 -169 120 C-171.54138427 117.15889474 -174.61391953 115.67861091 -178 114 C-178.928125 113.49855469 -179.85625 112.99710937 -180.8125 112.48046875 C-185.82647977 109.84679587 -190.86825034 107.62660225 -196.1875 105.6875 C-213.12798242 99.28911635 -230.50027408 89.79830977 -239.01953125 72.98828125 C-241.25749926 67.13277592 -241.30347706 61.12934329 -241.375 54.9375 C-241.38901855 54.09864258 -241.40303711 53.25978516 -241.41748047 52.39550781 C-241.32206863 39.90389573 -235.98446948 29.38034309 -227.55078125 20.39453125 C-220.46682671 13.74450961 -212.25882793 9.7247039 -203 7 C-201.8346875 6.64164063 -200.669375 6.28328125 -199.46875 5.9140625 C-193.77162244 4.52447014 -188.01960688 4.67076992 -182.1875 4.6875 C-180.51977539 4.66333008 -180.51977539 4.66333008 -178.81835938 4.63867188 C-171.39469615 4.63432801 -165.04841553 5.72223424 -158 8 C-156.93007812 8.29261719 -155.86015625 8.58523437 -154.7578125 8.88671875 C-145.93902415 11.56899117 -135.16947525 15.98641899 -130 24 C-133.85183157 31.81513094 -137.78029555 39.58882921 -141.8125 47.3125 C-142.38955688 48.43289673 -142.38955688 48.43289673 -142.97827148 49.57592773 C-145.76852673 54.88426337 -145.76852673 54.88426337 -148 56 C-150.00213174 54.8435448 -151.95226076 53.5966316 -153.875 52.3125 C-164.81049759 45.25382654 -176.94801186 41.75052119 -190 43 C-194.58064678 44.45257559 -197.31849742 45.97774612 -200 50 C-200.63011473 55.56608641 -200.63011473 55.56608641 -198.4453125 60.51953125 C-195.47403957 63.53352217 -192.31425146 65.12938029 -188.5 66.8125 C-187.39253418 67.32006836 -187.39253418 67.32006836 -186.26269531 67.83789062 C-181.34200391 70.05907882 -176.35144635 72.05993347 -171.31713867 74.00708008 C-159.2429593 78.67714071 -148.58342369 84.08518727 -139 93 C-134.5030129 91.4840665 -130.9606549 88.9874696 -127.1875 86.1875 C-126.0161532 85.32433363 -124.84296034 84.46366703 -123.66796875 83.60546875 C-123.08072021 83.16734863 -122.49347168 82.72922852 -121.88842773 82.27783203 C-120 81 -120 81 -117.80102539 79.92138672 C-115.53863138 78.78073892 -113.80417032 77.78478552 -112 76 C-110.91900965 72.5711001 -110.96865785 69.32107443 -111.0625 65.75 C-111.05615321 63.9322799 -111.04718509 62.11456638 -111.03515625 60.296875 C-111.0494165 59.49604492 -111.06367676 58.69521484 -111.07836914 57.87011719 C-111 56 -111 56 -110 55 C-107.90970633 54.93916734 -105.81758889 54.93960772 -103.7265625 54.96484375 C-101.72151503 54.95590152 -99.7164675 54.9469179 -97.71142578 54.93676758 C-96.33831725 54.9372496 -94.96514972 54.94994253 -93.59228516 54.97583008 C-82.75123982 55.15884019 -77.12233161 53.02294038 -69 46 C-67.53490849 44.96749074 -66.05265138 43.95870932 -64.55078125 42.98046875 C-63.85645996 42.52148193 -63.16213867 42.06249512 -62.44677734 41.58959961 C-61.74246582 41.12690674 -61.0381543 40.66421387 -60.3125 40.1875 C-54.46671565 36.31797187 -48.64676059 32.41669524 -42.875 28.4375 C-42.22168701 27.98713379 -41.56837402 27.53676758 -40.89526367 27.07275391 C-38.92947415 25.7161816 -36.96456227 24.35834888 -35 23 C-26.39159211 17.04792535 -17.75881964 11.13566617 -9.0625 5.3125 C-8.27439941 4.78277588 -7.48629883 4.25305176 -6.67431641 3.70727539 C-5.94776855 3.22250732 -5.2212207 2.73773926 -4.47265625 2.23828125 C-3.82562744 1.80555908 -3.17859863 1.37283691 -2.51196289 0.92700195 C-1 0 -1 0 0 0 Z " fill="#7E7E7E" transform="translate(385,131)"/>
<path d="M0 0 C1.57373278 0.8205546 3.13201455 1.67124431 4.67578125 2.546875 C5.57337158 3.05460449 6.47096191 3.56233398 7.39575195 4.08544922 C8.35827881 4.63475098 9.32080566 5.18405273 10.3125 5.75 C11.83460083 6.61455811 11.83460083 6.61455811 13.38745117 7.49658203 C22.5780878 12.73040401 31.71188214 18.06024042 40.83984375 23.40234375 C50.43205507 29.01247788 60.06670925 34.54920903 69.69580078 40.09570312 C73.02614252 42.01506662 76.35509148 43.93682353 79.68359375 45.859375 C90.61358123 52.17189401 101.55300302 58.46679648 112.51635742 64.72119141 C120.57788898 69.32312147 128.61101806 73.97330094 136.63964844 78.63232422 C139.05218958 80.03024059 141.46716152 81.42387148 143.8828125 82.81640625 C145.10556885 83.52204712 145.10556885 83.52204712 146.35302734 84.24194336 C147.86581323 85.11482297 149.37909343 85.98684697 150.89306641 86.85766602 C152.33293417 87.6892378 153.76099986 88.54157607 155.17660427 89.41381168 C157.36330162 90.64230181 159.40234025 91.60153252 161.70508671 92.55107021 C171.68757731 97.02195878 171.68757731 97.02195878 173.85964656 101.95063901 C175.23999713 107.8570716 174.87854702 113.91210774 174.70288086 119.93188477 C174.69864607 121.96273991 174.70103199 123.99361801 174.70951843 126.02445984 C174.71381339 131.52164573 174.62580093 137.01389742 174.52090907 142.50993848 C174.42697408 148.25921247 174.41831572 154.00860671 174.40052795 159.75852966 C174.35395212 170.63910345 174.23093042 181.51740964 174.08028561 192.39698595 C173.9124738 204.78599686 173.83011443 217.17511758 173.75485408 229.56498253 C173.59817152 255.04457768 173.33442995 280.52216166 173 306 C172.25601456 306.40452896 171.51202911 306.80905792 170.74549866 307.22584534 C169.76350998 307.76047897 168.7815213 308.29511261 167.76977539 308.84594727 C166.31348473 309.63836571 166.31348473 309.63836571 164.82777405 310.4467926 C160.99591611 312.55151172 157.21323329 314.7341724 153.4375 316.9375 C151.78138459 317.89997121 150.12512655 318.86219702 148.46875 319.82421875 C147.58960938 320.3351709 146.71046875 320.84612305 145.8046875 321.37255859 C140.68798495 324.34156444 135.5622945 327.29499124 130.4375 330.25 C129.34058838 330.88276855 128.24367676 331.51553711 127.11352539 332.16748047 C121.54406822 335.38020854 115.97375495 338.591443 110.40234375 341.80078125 C99.91951095 347.84107233 89.44611866 353.89639856 79 360 C65.23206784 368.04451617 51.41484404 376.00298609 37.59619141 383.95996094 C35.32508346 385.26783381 33.0542478 386.57617961 30.78369141 387.88500977 C28.57753408 389.15581176 26.37020236 390.42457746 24.16162109 391.69116211 C19.33421486 394.46571662 14.53256798 397.26405674 9.80078125 400.19921875 C9.02226807 400.67705811 8.24375488 401.15489746 7.44165039 401.6472168 C6.03464232 402.51568419 4.63580191 403.39760732 3.24780273 404.29614258 C0.49828754 405.98589985 -1.56679808 406.98497913 -4.81640625 407.09765625 C-9.60921211 405.44516736 -13.81810281 402.9867508 -18.1875 400.4375 C-19.1892627 399.86249756 -20.19102539 399.28749512 -21.22314453 398.69506836 C-30.13454941 393.55883369 -38.96664513 388.28739347 -47.80078125 383.01977539 C-56.38224797 377.91719912 -65.05605346 373.00338403 -73.78320312 368.15527344 C-84.02759061 362.45492466 -94.14136649 356.53968505 -104.25292969 350.60791016 C-108.3265879 348.223524 -112.41260039 345.86072803 -116.5 343.5 C-121.57551417 340.567902 -126.6447981 337.62573486 -131.703125 334.6640625 C-133.71869484 333.48428076 -135.7343207 332.30459471 -137.75 331.125 C-139.2515564 330.24618164 -139.2515564 330.24618164 -140.78344727 329.34960938 C-148.88754895 324.6196748 -157.04710048 319.99269144 -165.25097656 315.43798828 C-166.13624023 314.94282715 -167.02150391 314.44766602 -167.93359375 313.9375 C-168.69728271 313.51339844 -169.46097168 313.08929688 -170.24780273 312.65234375 C-171.61014038 311.83443359 -171.61014038 311.83443359 -173 311 C-173.72210915 310.73727295 -174.44421829 310.4745459 -175.18820953 310.20385742 C-178.21610779 308.81093572 -179.88300895 307.60276548 -182 305 C-183.49806184 298.61921721 -183.38735406 292.2508792 -183.40258789 285.72265625 C-183.43935262 283.7247402 -183.47971157 281.72688754 -183.52339172 279.72911072 C-183.62851492 274.30507702 -183.67431328 268.88213815 -183.70290303 263.45721436 C-183.72264639 260.06419393 -183.75368701 256.6714624 -183.78841972 253.27856445 C-183.90763961 241.42925658 -183.9736873 229.5808227 -183.99731445 217.73095703 C-184.02090165 206.70502017 -184.16843686 195.68536027 -184.37251097 184.66142559 C-184.54182028 175.18241477 -184.61806389 165.7054827 -184.62415689 156.22497272 C-184.62966668 150.56791507 -184.6731008 144.91746933 -184.81260872 139.26199341 C-185.60723719 105.02377068 -185.60723719 105.02377068 -179.70624924 96.80551147 C-174.19364305 91.86906473 -168.15250561 89.30318538 -161.15957451 87.11056519 C-155.78373242 85.22099966 -151.05751965 82.22992017 -146.1875 79.3125 C-144.28547173 78.23441595 -142.38088426 77.16082197 -140.47265625 76.09375 C-129.45034407 69.87613483 -118.52277416 63.49533847 -107.625 57.0625 C-96.9157097 50.74273693 -86.09933943 44.61066292 -75.29296875 38.45898438 C-65.76725051 33.03442558 -56.25804993 27.58855397 -46.82128906 22.01049805 C-40.071863 18.02745067 -33.28760288 14.10499018 -26.5 10.1875 C-25.40147705 9.55287842 -24.3029541 8.91825684 -23.17114258 8.2644043 C-21.07987337 7.05862027 -18.98519699 5.858721 -16.88671875 4.66552734 C-15.03737514 3.59852615 -13.20446477 2.50219413 -11.39453125 1.36962891 C-10.22470703 0.65492432 -10.22470703 0.65492432 -9.03125 -0.07421875 C-8.36673828 -0.49662842 -7.70222656 -0.91903809 -7.01757812 -1.35424805 C-4.08895541 -2.29159159 -2.69701227 -1.35848547 0 0 Z M-9.84375 18.1953125 C-10.58979492 18.66090576 -11.33583984 19.12649902 -12.10449219 19.60620117 C-12.89500977 20.10740479 -13.68552734 20.6086084 -14.5 21.125 C-16.13941798 22.14647102 -17.78003871 23.1660143 -19.421875 24.18359375 C-20.21400391 24.67456543 -21.00613281 25.16553711 -21.82226562 25.67138672 C-25.25617618 27.76638013 -28.78007815 29.67020834 -32.328125 31.5625 C-42.0079537 36.77036106 -51.46215025 42.41985529 -60.97070312 47.93237305 C-65.63837287 50.63724462 -70.31334151 53.32816666 -75 56 C-81.17577358 59.52083499 -87.32697439 63.08297194 -93.47607422 66.65014648 C-99.51088605 70.14717186 -105.56481624 73.60966903 -111.625 77.0625 C-118.79397134 81.14853758 -125.92837465 85.28740674 -133.03076172 89.48803711 C-138.40640924 92.66397223 -143.82305115 95.7606272 -149.265625 98.8203125 C-150.07771785 99.31939495 -150.07771785 99.31939495 -150.90621662 99.82855988 C-153 101 -153 101 -156.15655041 102.32421112 C-159.92772077 104.13873563 -163.25504066 105.78649974 -166 109 C-167.91671048 115.04016951 -167.6498432 120.88383364 -167.47583008 127.16601562 C-167.47216011 129.01938619 -167.47422736 130.87277565 -167.48158264 132.72613525 C-167.48530552 137.74369734 -167.4090152 142.75720062 -167.31812119 147.77382088 C-167.2367224 153.02132572 -167.22920779 158.26892902 -167.21379089 163.51696777 C-167.17342209 173.44823401 -167.06679804 183.37763467 -166.93624753 193.3080802 C-166.79082112 204.61612974 -166.71943496 215.92426952 -166.65420687 227.23302174 C-166.51840809 250.48971455 -166.28982516 273.74475265 -166 297 C-163.78762961 298.26533524 -161.57512653 299.53043751 -159.36254883 300.79541016 C-158.43385357 301.32661217 -158.43385357 301.32661217 -157.48639679 301.86854553 C-152.82036416 304.53586295 -148.14184623 307.18041761 -143.45776367 309.81591797 C-135.15783397 314.48705141 -126.89035985 319.20238405 -118.69506836 324.0546875 C-104.30393584 332.56569983 -89.77984701 340.85367417 -75.25 349.125 C-66.96139765 353.84409912 -58.73831235 358.66847816 -50.54394531 363.54931641 C-45.77122097 366.38722543 -40.96673718 369.14340582 -36.10351562 371.82299805 C-32.89665385 373.61736674 -29.76281412 375.52583145 -26.625 377.4375 C-15.47505283 385.18826303 -15.47505283 385.18826303 -3 389 C-0.15738384 387.90484808 2.3891414 386.37095272 5 384.8125 C5.7847168 384.35979736 6.56943359 383.90709473 7.37792969 383.44067383 C9.06058403 382.46905848 10.73985507 381.49156463 12.41601562 380.50878906 C14.95876221 379.02407875 17.51492261 377.56625388 20.078125 376.1171875 C29.99998291 370.50303343 39.83173509 364.74704999 49.63232422 358.92431641 C57.11166237 354.49411523 64.6665167 350.20836797 72.24462891 345.94995117 C82.30318601 340.28808036 92.26014769 334.45597189 102.22070312 328.62402344 C106.30645075 326.23660309 110.40259569 323.86734049 114.5 321.5 C121.8622812 317.24307187 129.21495413 312.96981201 136.5625 308.6875 C137.54992187 308.11257813 138.53734375 307.53765625 139.5546875 306.9453125 C140.50730469 306.38972656 141.45992188 305.83414062 142.44140625 305.26171875 C143.27357666 304.77662842 144.10574707 304.29153809 144.96313477 303.79174805 C145.96530029 303.20047119 146.96746582 302.60919434 148 302 C148.80657201 301.71618815 149.61314402 301.43237631 150.4441576 301.1399641 C153.64590626 299.77951326 155.62190761 298.56214114 158 296 C159.52518218 290.08058914 159.26488028 284.22951023 159.13525391 278.15283203 C159.13243214 276.30960749 159.13401852 274.4663717 159.13967896 272.62315369 C159.14254735 267.62474794 159.08377715 262.62874376 159.01393938 257.63089609 C158.95140791 252.40598144 158.94555078 247.18101113 158.9336853 241.95578003 C158.90260884 232.06376933 158.82055546 222.17286435 158.72019041 212.28134048 C158.60839973 201.01917791 158.55343004 189.75696241 158.50323606 178.4943831 C158.39872143 155.3289758 158.22284008 132.16454986 158 109 C156.92403564 108.39889404 155.84807129 107.79778809 154.73950195 107.1784668 C153.30155382 106.37295771 151.86364924 105.56737087 150.42578125 104.76171875 C149.71973755 104.36754761 149.01369385 103.97337646 148.28625488 103.56726074 C143.85305509 101.08084164 139.5004327 98.50227128 135.1875 95.8125 C130.62956697 92.97558919 126.02173819 90.33526206 121.29296875 87.796875 C109.09592448 81.1413111 97.11561837 74.08056705 85.125 67.0625 C76.23052917 61.85673241 67.28680317 56.74671782 58.30664062 51.69042969 C45.48264887 44.4653344 32.7672275 37.05754651 20.09179688 29.57543945 C14.34676042 26.18938698 8.56096002 22.87905857 2.7578125 19.59375 C0.79895728 18.46172036 -1.11754163 17.25497225 -3 16 C-6.30308635 16 -7.13133417 16.48010837 -9.84375 18.1953125 Z " fill="#090909" transform="translate(228,21)"/>
<path d="M0 0 C1.66772461 -0.02416992 1.66772461 -0.02416992 3.36914062 -0.04882812 C10.79280385 -0.05317199 17.13908447 1.03473424 24.1875 3.3125 C25.25742188 3.60511719 26.32734375 3.89773437 27.4296875 4.19921875 C36.24847585 6.88149117 47.01802475 11.29891899 52.1875 19.3125 C48.33566843 27.12763094 44.40720445 34.90132921 40.375 42.625 C39.79794312 43.74539673 39.79794312 43.74539673 39.20922852 44.88842773 C36.41897327 50.19676337 36.41897327 50.19676337 34.1875 51.3125 C32.18536826 50.1560448 30.23523924 48.9091316 28.3125 47.625 C17.37700241 40.56632654 5.23948814 37.06302119 -7.8125 38.3125 C-12.39314678 39.76507559 -15.13099742 41.29024612 -17.8125 45.3125 C-18.44261473 50.87858641 -18.44261473 50.87858641 -16.2578125 55.83203125 C-13.28653957 58.84602217 -10.12675146 60.44188029 -6.3125 62.125 C-5.20503418 62.63256836 -5.20503418 62.63256836 -4.07519531 63.15039062 C0.84520556 65.37144768 5.83531223 67.37257643 10.86962891 69.31884766 C27.8513887 75.89003632 44.86090004 84.78408634 52.99682617 102.02783203 C55.26375584 107.40313696 55.69506549 112.26708332 55.625 118.0625 C55.61742676 118.94212402 55.60985352 119.82174805 55.60205078 120.72802734 C55.27506129 133.70497507 50.40060334 145.01694409 41.5 154.5 C25.98023057 169.07739254 8.28839998 170.97761933 -12.04589844 170.44873047 C-30.75023798 169.52770845 -48.826658 160.44068055 -62.8125 148.3125 C-62.1757712 144.70106202 -60.65044232 142.3164103 -58.57421875 139.3203125 C-57.91873047 138.36769531 -57.26324219 137.41507813 -56.58789062 136.43359375 C-55.89888672 135.44488281 -55.20988281 134.45617187 -54.5 133.4375 C-53.14957275 131.48188603 -51.79930779 129.52615997 -50.44921875 127.5703125 C-49.81677246 126.65797852 -49.18432617 125.74564453 -48.53271484 124.80566406 C-46.59348319 121.99507172 -44.692051 119.16323289 -42.8125 116.3125 C-39.72591946 117.7168566 -37.02978042 119.51011116 -34.24584961 121.43579102 C-23.03147242 129.07461514 -10.70907435 134.378207 3.1875 132.3125 C7.61759546 130.89541978 10.54919877 129.26995185 13.1875 125.3125 C13.97358766 121.8261112 14.05256774 118.789093 13.1875 115.3125 C10.64611573 112.47139474 7.57358047 110.99111091 4.1875 109.3125 C3.259375 108.81105469 2.33125 108.30960937 1.375 107.79296875 C-3.63897977 105.15929587 -8.68075034 102.93910225 -14 101 C-30.94048242 94.60161635 -48.31277408 85.11080977 -56.83203125 68.30078125 C-59.06999926 62.44527592 -59.11597706 56.44184329 -59.1875 50.25 C-59.20151855 49.41114258 -59.21553711 48.57228516 -59.22998047 47.70800781 C-59.13456863 35.21639573 -53.79696948 24.69284309 -45.36328125 15.70703125 C-38.27932671 9.05700961 -30.07132793 5.0372039 -20.8125 2.3125 C-19.6471875 1.95414063 -18.481875 1.59578125 -17.28125 1.2265625 C-11.58412244 -0.16302986 -5.83210688 -0.01673008 0 0 Z " fill="#FDFDFD" transform="translate(202.8125,135.6875)"/>
<path d="M0 0 C9.57 0 19.14 0 29 0 C29 26.73 29 53.46 29 81 C19.43 81 9.86 81 0 81 C0 54.27 0 27.54 0 0 Z " fill="#FBFBFB" transform="translate(274,224)"/>
<path d="M0 0 C9.24 0 18.48 0 28 0 C28 6.6 28 13.2 28 20 C18.76 20 9.52 20 0 20 C0 13.4 0 6.8 0 0 Z " fill="#FDFDFD" transform="translate(275,187)"/>
</svg>
